<svg width="66" height="67" viewBox="0 0 66 67" fill="none" xmlns="http://www.w3.org/2000/svg">
<path d="M0.0387268 16.9141C0.0387268 8.0775 7.20217 0.914062 16.0387 0.914062H49.4258C58.2623 0.914062 65.4258 8.07751 65.4258 16.9141V50.3011C65.4258 59.1377 58.2623 66.3011 49.4258 66.3011H16.0387C7.20216 66.3011 0.0387268 59.1377 0.0387268 50.3011V16.9141Z" fill="#FF9B53"/>
<path d="M38.338 18.9568C37.6791 18.3044 36.7857 17.938 35.8542 17.938C34.9227 17.938 34.0293 18.3044 33.3704 18.9568L17.9429 34.2418C17.6166 34.565 17.3578 34.9488 17.1812 35.3711C17.0046 35.7934 16.9137 36.2461 16.9137 36.7032C16.9137 37.1603 17.0046 37.613 17.1812 38.0353C17.3578 38.4576 17.6166 38.8413 17.9429 39.1646L19.7731 40.9762C20.5696 41.7667 21.6893 41.626 22.3655 41.2268C22.7385 41.0074 23.1746 40.9173 23.605 40.9708C24.0355 41.0243 24.4357 41.2183 24.7424 41.5222C25.0491 41.8261 25.245 42.2225 25.299 42.6489C25.353 43.0753 25.262 43.5074 25.0406 43.8769C24.6392 44.5468 24.4955 45.6561 25.2935 46.4451L27.1254 48.2582C27.4516 48.5815 27.839 48.8379 28.2653 49.0128C28.6916 49.1878 29.1485 49.2778 29.6099 49.2778C30.0714 49.2778 30.5283 49.1878 30.9546 49.0128C31.3809 48.8379 31.7682 48.5815 32.0945 48.2582L47.5204 32.9763C47.8467 32.6531 48.1055 32.2693 48.2821 31.847C48.4587 31.4247 48.5496 30.972 48.5496 30.5149C48.5496 30.0578 48.4587 29.6051 48.2821 29.1828C48.1055 28.7605 47.8467 28.3768 47.5204 28.0535L45.6917 26.2404C44.8953 25.4514 43.7741 25.5906 43.0979 25.9897C42.7249 26.2091 42.2887 26.2992 41.8583 26.2457C41.4278 26.1922 41.0277 25.9982 40.7209 25.6944C40.4142 25.3905 40.2183 24.994 40.1643 24.5676C40.1104 24.1412 40.2013 23.7091 40.4228 23.3396C40.8257 22.6697 40.9678 21.5605 40.1698 20.7715L38.3395 18.9568H38.338Z" fill="white"/>
</svg>
