<svg width="37" height="33" viewBox="0 0 37 33" fill="none" xmlns="http://www.w3.org/2000/svg">
<path d="M26.7387 29.3523C26.6838 28.1788 26.6111 27.0116 26.5529 25.847C26.3648 22.2038 26.3802 18.5072 26.1833 14.846C25.9864 11.2122 26.1032 7.57605 25.9993 3.94241C25.9784 3.18721 26.0121 1.69578 25.2307 1.26526C23.5497 0.340428 22.5518 2.86303 22.1242 3.89004C21.3533 5.75418 20.9079 7.7148 20.3572 9.64606C19.8879 11.2992 19.3534 12.9469 19.1723 14.6585C19.0382 15.9428 19.0505 17.3805 19.7214 18.5377C20.0583 19.1193 20.6408 19.5151 21.3042 19.6824C21.9926 19.8585 22.7797 19.6279 23.433 19.9388C23.6014 20.0202 23.7497 20.1893 23.8173 20.36C24.029 20.9102 23.8287 21.7451 23.7625 22.3127C23.5529 24.1415 23.3311 25.9884 23.2319 27.8258C23.1732 28.9371 23.1082 30.3603 23.7805 31.3284C24.1925 31.9164 25.0276 32.4654 25.781 32.1732C26.9072 31.7421 26.7855 30.286 26.7387 29.3523Z" fill="white"/>
<path d="M12.4121 2.07644C12.0885 2.20618 12.2112 3.36326 12.1968 3.71877C12.1755 4.35749 12.2191 5.20263 12.1422 6.0304C12.1418 6.0378 12.1407 6.04293 12.1396 6.04807C12.1329 6.10559 12.1275 6.16764 12.1181 6.23316C12.108 6.29642 12.0972 6.35742 12.0895 6.42008C12.0205 6.82366 11.8892 7.30158 11.6409 7.53071C11.3591 7.79279 10.7275 7.73767 10.5082 7.42801C10.1493 6.92394 10.1763 5.79854 10.1545 5.76536C10.1399 5.23296 10.0623 3.62266 9.94596 2.56098C9.93631 2.48099 9.92084 1.99977 9.48148 1.94834C9.27659 1.92609 9.061 2.10069 8.99112 2.41959C8.78477 3.36087 8.59153 5.15519 8.57936 5.43734C8.57689 5.46467 8.57567 5.49652 8.57555 5.52324C8.57555 5.52324 8.57446 5.52837 8.57509 5.53063C8.57376 5.58921 8.50398 6.99498 8.14823 7.47995C7.96231 7.73422 7.47959 7.93419 6.9999 7.66514C6.80883 7.55682 6.67789 7.34805 6.58559 7.12444C6.08395 5.5631 6.53426 3.84306 6.59834 3.02345C6.61731 2.79292 6.82606 2.02326 6.36035 2.04901C5.65911 2.08711 4.75355 5.07479 4.59164 5.75955C4.19468 7.46338 4.13449 9.28396 4.82498 10.9275C5.2086 11.8376 5.95885 12.5826 6.88923 12.9438C7.30039 13.102 7.75736 13.2168 8.24119 13.2834C8.06712 17.1568 7.86946 21.1989 7.68946 23.4483C7.55102 25.1411 7.38757 26.8525 7.40956 28.5524C7.42255 29.568 7.41185 30.779 8.07851 31.6305C8.77588 32.5202 10.2468 32.1109 10.6439 31.0596C11.0894 29.8746 10.9599 28.4936 10.8082 26.3178C10.6559 24.1397 10.4844 21.1684 10.3899 19.5697C10.2516 17.2157 10.2034 15.1587 10.1901 13.2819C11.4287 13.105 12.584 12.5735 13.2305 11.596C13.5142 11.1685 13.701 10.6908 13.8285 10.1993C14.0242 9.4549 14.1196 8.63933 14.0773 7.87147C14.0343 7.16445 13.4533 1.65936 12.4121 2.07644Z" fill="white"/>
</svg>
