<svg width="30" height="31" viewBox="0 0 30 31" fill="none" xmlns="http://www.w3.org/2000/svg">
<g clip-path="url(#clip0_1_1798)">
<path d="M15.0001 0.901367C7.0471 0.901367 0.600098 7.34837 0.600098 15.3014C0.600098 23.2544 7.0471 29.7014 15.0001 29.7014C22.9531 29.7014 29.4001 23.2544 29.4001 15.3014C29.4001 7.34837 22.9531 0.901367 15.0001 0.901367ZM20.8576 12.6974C20.8636 12.8204 20.8651 12.9434 20.8651 13.0634C20.8651 16.8134 18.0136 21.1349 12.7966 21.1349C11.255 21.1374 9.74555 20.6947 8.4496 19.8599C8.6701 19.8869 8.8966 19.8974 9.1261 19.8974C10.4551 19.8974 11.6776 19.4459 12.6481 18.6839C12.0567 18.6723 11.4836 18.4764 11.0088 18.1236C10.5339 17.7709 10.181 17.2788 9.9991 16.7159C10.4238 16.7966 10.8614 16.7797 11.2786 16.6664C10.6367 16.5366 10.0594 16.1887 9.64466 15.6819C9.22993 15.175 9.00326 14.5403 9.0031 13.8854V13.8509C9.3856 14.0624 9.8236 14.1914 10.2886 14.2064C9.6868 13.8058 9.26078 13.1904 9.09767 12.4861C8.93456 11.7818 9.04668 11.0417 9.4111 10.4174C10.1235 11.2934 11.012 12.01 12.019 12.5208C13.0259 13.0317 14.1289 13.3254 15.2566 13.3829C15.1132 12.7743 15.1749 12.1355 15.4321 11.5656C15.6893 10.9958 16.1275 10.5269 16.6787 10.2318C17.2299 9.93667 17.8631 9.83195 18.4799 9.93388C19.0968 10.0358 19.6627 10.3387 20.0896 10.7954C20.7244 10.6698 21.3331 10.4369 21.8896 10.1069C21.678 10.7641 21.2351 11.3221 20.6431 11.6774C21.2054 11.6096 21.7544 11.4585 22.2721 11.2289C21.8918 11.7987 21.4128 12.296 20.8576 12.6974Z" fill="white"/>
</g>
<defs>
<clipPath id="clip0_1_1798">
<rect width="30" height="30" fill="white" transform="translate(0 0.30127)"/>
</clipPath>
</defs>
</svg>
