<svg width="30" height="31" viewBox="0 0 30 31" fill="none" xmlns="http://www.w3.org/2000/svg">
<g clip-path="url(#clip0_1_1800)">
<path d="M19.5001 15.3014C19.5001 16.4948 19.026 17.6394 18.1821 18.4833C17.3382 19.3273 16.1936 19.8014 15.0001 19.8014C13.8066 19.8014 12.662 19.3273 11.8181 18.4833C10.9742 17.6394 10.5001 16.4948 10.5001 15.3014C10.5001 15.0449 10.5271 14.7944 10.5736 14.5514H9.0001V20.5469C9.0001 20.9639 9.3376 21.3014 9.7546 21.3014H20.2471C20.4469 21.301 20.6385 21.2213 20.7796 21.0798C20.9208 20.9384 21.0001 20.7467 21.0001 20.5469V14.5514H19.4266C19.4731 14.7944 19.5001 15.0449 19.5001 15.3014ZM15.0001 18.3014C15.3942 18.3013 15.7844 18.2236 16.1484 18.0727C16.5124 17.9218 16.8432 17.7007 17.1217 17.4219C17.4003 17.1432 17.6213 16.8124 17.772 16.4483C17.9227 16.0842 18.0002 15.6939 18.0001 15.2999C18 14.9058 17.9223 14.5156 17.7714 14.1516C17.6205 13.7876 17.3994 13.4568 17.1207 13.1782C16.842 12.8997 16.5111 12.6787 16.147 12.528C15.7829 12.3773 15.3927 12.2998 14.9986 12.2999C14.2028 12.3001 13.4396 12.6164 12.877 13.1793C12.3144 13.7422 11.9984 14.5055 11.9986 15.3014C11.9988 16.0972 12.3151 16.8604 12.878 17.423C13.4409 17.9856 14.2043 18.3016 15.0001 18.3014ZM18.6001 12.1514H20.3986C20.5181 12.1514 20.6327 12.104 20.7173 12.0197C20.802 11.9353 20.8497 11.8209 20.8501 11.7014V9.90287C20.8501 9.78312 20.8025 9.66828 20.7179 9.58361C20.6332 9.49894 20.5183 9.45137 20.3986 9.45137H18.6001C18.4804 9.45137 18.3655 9.49894 18.2808 9.58361C18.1962 9.66828 18.1486 9.78312 18.1486 9.90287V11.7014C18.1501 11.9489 18.3526 12.1514 18.6001 12.1514ZM15.0001 0.901367C11.181 0.901367 7.51828 2.41851 4.81776 5.11903C2.11724 7.81955 0.600098 11.4823 0.600098 15.3014C0.600098 19.1205 2.11724 22.7832 4.81776 25.4837C7.51828 28.1842 11.181 29.7014 15.0001 29.7014C16.8911 29.7014 18.7637 29.3289 20.5107 28.6052C22.2578 27.8816 23.8453 26.8209 25.1824 25.4837C26.5196 24.1465 27.5803 22.5591 28.304 20.812C29.0276 19.0649 29.4001 17.1924 29.4001 15.3014C29.4001 13.4103 29.0276 11.5378 28.304 9.79073C27.5803 8.04364 26.5196 6.45619 25.1824 5.11903C23.8453 3.78187 22.2578 2.72117 20.5107 1.9975C18.7637 1.27383 16.8911 0.901367 15.0001 0.901367ZM22.5001 21.1349C22.5001 22.0514 21.7501 22.8014 20.8336 22.8014H9.1666C8.2501 22.8014 7.5001 22.0514 7.5001 21.1349V9.46787C7.5001 8.55137 8.2501 7.80137 9.1666 7.80137H20.8336C21.7501 7.80137 22.5001 8.55137 22.5001 9.46787V21.1349Z" fill="white"/>
</g>
<defs>
<clipPath id="clip0_1_1800">
<rect width="30" height="30" fill="white" transform="translate(0 0.30127)"/>
</clipPath>
</defs>
</svg>
