<svg width="100" height="77" viewBox="0 0 100 77" fill="none" xmlns="http://www.w3.org/2000/svg">
<g clip-path="url(#clip0_1_1313)">
<path d="M78.7125 39.9687C80.8627 36.8382 80.573 33.7414 78.4896 30.7235C78.1106 30.1901 77.9185 29.5441 77.9437 28.8879C77.9437 25.0367 76.8296 21.7823 73.0082 20.172C72.3732 19.913 72.44 19.4513 72.362 19.0459C71.5264 14.3163 69.2648 11.9065 64.5632 10.8367C64.1733 10.7466 63.8168 10.7579 63.6051 10.2849C62.0008 6.72644 59.0261 5.48774 55.3941 5.45395C55.1729 5.46226 54.9534 5.41147 54.7578 5.30668C54.5622 5.2019 54.3974 5.04683 54.28 4.85713C51.0714 0.998382 47.2834 0.247654 42.9161 2.60494C42.4816 2.84142 42.203 2.98781 41.8019 2.49233C41.2173 1.79636 40.4992 1.22737 39.6909 0.819729C38.8826 0.412087 38.001 0.174249 37.0993 0.120573C36.1976 0.066898 35.2944 0.198502 34.4444 0.507436C33.5944 0.81637 32.8152 1.29622 32.1537 1.91802C30.6274 3.5396 29.5801 3.32564 27.7864 2.5599C19.7091 -0.897208 11.7321 3.83238 10.5511 12.6947C10.4731 13.3253 10.1277 13.4717 9.70437 13.7082C8.0325 14.5302 6.66641 15.8738 5.80779 17.5405C4.94917 19.2073 4.64353 21.1089 4.93597 22.9647C5.01723 23.2997 4.98834 23.6524 4.85366 23.9693C4.71898 24.2863 4.48585 24.5503 4.18952 24.7214C0.758054 27.165 -0.712572 34.4734 3.72159 37.7953C4.30263 38.1985 4.76616 38.7517 5.06398 39.3973C5.3618 40.0429 5.48303 40.7574 5.41504 41.4664C5.48189 47.4122 9.96062 51.7026 16.1217 50.3738C16.5607 50.3076 16.9958 50.2174 17.4252 50.1035C18.0268 49.9234 18.361 49.9909 18.6284 50.6778C21.046 56.8488 26.5609 60.2834 34.4154 59.0222C36.3094 58.7181 36.4653 58.5042 36.4653 56.6011C36.4653 50.5427 36.4653 44.4843 36.4653 38.426C36.4653 37.8629 36.3874 37.3787 37.0447 36.962C37.7421 36.593 38.2847 35.9825 38.5732 35.2421C38.8617 34.5018 38.8767 33.6812 38.6156 32.9306C38.3883 32.2132 37.9429 31.5865 37.3428 31.1397C36.7427 30.6929 36.0185 30.4487 35.2732 30.442C34.5351 30.4522 33.818 30.6923 33.2198 31.1296C32.6217 31.567 32.1716 32.1802 31.9309 32.8856C31.6912 33.642 31.7228 34.4597 32.0203 35.1949C32.3178 35.9301 32.8621 36.5358 33.5575 36.9057C33.7576 37.0138 33.9235 37.1769 34.0358 37.3761C34.1482 37.5754 34.2025 37.8027 34.1926 38.0318C34.1926 43.8199 34.1926 49.6081 34.1926 55.3962C34.1926 56.1169 34.0143 56.3646 33.2678 56.4547C26.9842 57.243 22.5055 54.3939 20.6115 48.3356C20.177 46.9392 19.8094 46.7478 18.3833 47.1194C17.4809 47.3446 16.5784 47.5923 15.6649 47.7387C11.0413 48.4369 7.86609 45.8919 8.12233 41.1736C8.23374 38.6962 7.81038 37.1873 5.55987 35.8022C2.73003 34.0567 2.90829 29.0456 5.55987 27.0749C6.52915 29.8789 8.27831 31.7933 11.331 32.0973C11.6945 32.1042 12.0514 32.1976 12.3727 32.3697C12.694 32.5419 12.9707 32.788 13.1804 33.0883C13.6647 33.6845 14.3308 34.1019 15.0745 34.275C15.8183 34.4482 16.5979 34.3675 17.2915 34.0455C17.9435 33.748 18.4884 33.2538 18.8515 32.6308C19.2145 32.0078 19.3779 31.2864 19.3192 30.5658C19.2365 29.8029 18.9171 29.0859 18.4068 28.5175C17.8966 27.9492 17.2215 27.5585 16.4782 27.4015C15.7527 27.273 15.0055 27.3777 14.342 27.7009C13.6784 28.0241 13.1319 28.5496 12.7793 29.2033C12.5342 29.6199 12.5342 30.3293 11.6652 29.9803C10.6883 29.6854 9.81023 29.1252 9.12658 28.3608C8.44294 27.5963 7.97996 26.6569 7.7881 25.6448C7.61185 24.4549 7.50768 23.2553 7.47615 22.0526C7.30932 20.6069 7.66992 19.1493 8.49034 17.9531C9.31076 16.7569 10.5347 15.9043 11.9326 15.555C12.138 15.5124 12.3329 15.4287 12.5057 15.3087C12.6786 15.1888 12.826 15.0351 12.9392 14.8567C13.0523 14.6782 13.129 14.4787 13.1647 14.2699C13.2004 14.0611 13.1944 13.8471 13.147 13.6407C12.9996 12.1158 13.3102 10.5814 14.0383 9.23763C16.4447 4.53056 21.6811 2.79638 26.9954 4.94721C28.9897 5.758 28.9785 5.758 28.2432 7.68362C28.0818 8.04957 27.9441 8.42573 27.831 8.80971C27.7548 9.26527 27.5869 9.70018 27.3378 10.0876C27.0887 10.4749 26.7636 10.8066 26.3826 11.0619C25.8308 11.4525 25.4223 12.0166 25.2207 12.6664C25.0192 13.3161 25.036 14.015 25.2685 14.6541C25.456 15.35 25.8588 15.9669 26.4181 16.4147C26.9774 16.8625 27.6638 17.1177 28.3769 17.1428C29.09 17.2232 29.8097 17.0695 30.4297 16.7044C31.0496 16.3394 31.5369 15.7824 31.8195 15.1158C32.1193 14.4344 32.1924 13.6731 32.0276 12.9462C31.8629 12.2193 31.4693 11.566 30.9059 11.0844C30.5271 10.7353 29.9923 10.5552 30.2375 9.81193C30.8685 7.61636 32.0152 5.60745 33.5798 3.95625C34.0432 3.47019 34.6114 3.09895 35.2402 2.87149C35.869 2.64404 36.5412 2.56653 37.2045 2.64502C37.8678 2.72351 38.5042 2.95587 39.064 3.32397C39.6238 3.69206 40.0918 4.18594 40.4316 4.76704C41.3452 6.56879 41.724 6.65888 43.2726 5.42017C46.704 2.67251 50.492 3.31438 52.7982 7.07553C52.9467 7.39845 53.193 7.66525 53.5014 7.83733C53.8099 8.0094 54.1645 8.07783 54.514 8.03271C55.0889 7.99332 55.6659 7.99332 56.2408 8.03271C57.458 7.9936 58.6513 8.37998 59.6194 9.12669C60.5875 9.8734 61.2712 10.9347 61.5551 12.1317C61.6617 12.4678 61.8738 12.7597 62.1593 12.9629C62.4448 13.1662 62.7882 13.2697 63.1372 13.2578C67.783 13.8884 69.6213 15.9154 69.8219 20.69C69.7877 21.0941 69.9123 21.4955 70.1688 21.8074C70.4253 22.1193 70.7929 22.3166 71.1922 22.3566C72.1675 22.5207 73.0611 23.008 73.7324 23.7417C74.369 24.4967 74.8377 25.381 75.1068 26.3349C75.3759 27.2888 75.4391 28.2901 75.2921 29.2708C75.2408 29.7517 75.2885 30.238 75.4323 30.6993C75.5761 31.1606 75.8129 31.5867 76.1277 31.9509C76.876 32.7424 77.355 33.7543 77.4952 34.8398C77.6355 35.9253 77.4296 37.0277 76.9076 37.9868C75.5229 36.0264 73.5377 34.5818 71.2591 33.8765C70.7354 33.7189 70.8023 33.3585 70.7577 32.9419C70.7324 32.4479 70.6032 31.9651 70.3787 31.5256C70.1542 31.0861 69.8396 30.7001 69.4558 30.3932C69.072 30.0863 68.628 29.8656 68.1532 29.7458C67.6784 29.6261 67.1838 29.61 66.7023 29.6987C66.2206 29.782 65.7618 29.9674 65.3559 30.2427C64.9501 30.518 64.6065 30.8769 64.3476 31.2959C64.0888 31.715 63.9206 32.1846 63.8541 32.674C63.7875 33.1634 63.8242 33.6615 63.9616 34.1355C64.0902 34.6134 64.3192 35.0576 64.633 35.4379C64.9467 35.8183 65.3379 36.1258 65.7799 36.3395C66.2218 36.5533 66.7042 36.6682 67.194 36.6765C67.6839 36.6848 68.1698 36.5863 68.6186 36.3877C68.958 36.2393 69.3239 36.1627 69.6937 36.1627C70.0636 36.1627 70.4294 36.2393 70.7689 36.3877C72.3065 36.949 73.6568 37.9363 74.6655 39.2366C75.6742 40.537 76.3006 42.0979 76.4731 43.7411C77.2641 48.5833 73.7658 54.0899 69.0977 55.7115C68.4194 55.9233 67.7268 56.0851 67.0254 56.1957C66.4572 56.3196 66.1453 56.1957 66.0673 55.475C66.0116 54.4738 65.6924 53.5058 65.1426 52.671C64.8968 52.381 64.7431 52.0229 64.7013 51.6433C64.6596 51.2637 64.7318 50.8802 64.9086 50.5427C65.0796 50.0841 65.1499 49.5933 65.1145 49.1045C65.079 48.6156 64.9388 48.1404 64.7035 47.7119C64.4681 47.2833 64.1434 46.9116 63.7517 46.6227C63.36 46.3337 62.9108 46.1343 62.4353 46.0383C61.97 45.9318 61.4882 45.9217 61.019 46.0086C60.5498 46.0954 60.1028 46.2775 59.7051 46.5437C59.3074 46.81 58.9671 47.1549 58.7049 47.5577C58.4427 47.9605 58.2639 48.4128 58.1794 48.8874C58.0754 49.3496 58.0715 49.8291 58.1681 50.293C58.2646 50.7569 58.4592 51.1942 58.7385 51.575C59.0179 51.9558 59.3754 52.271 59.7866 52.499C60.1977 52.7271 60.6528 52.8626 61.1206 52.8962C62.4576 52.8962 62.8809 53.6282 63.2597 54.6304C64.3738 57.547 63.5048 59.7542 60.6304 60.9478C58.0459 61.9615 55.2312 62.219 52.5086 61.691C49.1662 61.1505 47.8404 59.5515 47.8293 56.0606C47.8293 47.6261 47.8293 39.1692 47.8293 30.7685C47.8022 30.5103 47.8525 30.2499 47.9737 30.021C48.0949 29.7921 48.2814 29.6052 48.5089 29.4848C49.1386 29.134 49.6361 28.5829 49.9242 27.9171C50.2123 27.2512 50.2748 26.5079 50.1021 25.8025C49.9507 25.0466 49.556 24.3627 48.9796 23.8574C48.4032 23.3522 47.6774 23.0541 46.9157 23.0097C46.1776 22.9635 45.4442 23.1571 44.8228 23.5623C44.2013 23.9676 43.7245 24.5631 43.462 25.2619C43.177 25.9705 43.1317 26.7544 43.3332 27.4916C43.5347 28.2289 43.9717 28.8782 44.5761 29.3384C45.0106 29.6762 45.5454 29.8226 45.5342 30.6109C45.5342 39.2593 45.5342 47.9189 45.5342 56.5786C45.5342 60.3848 47.2388 63.0086 50.9154 63.9657C54.2209 64.8311 57.7036 64.7098 60.9424 63.6166C61.9999 63.3332 62.9844 62.8222 63.8286 62.1186C64.6727 61.415 65.3565 60.5355 65.8333 59.5402C66.0896 58.9546 66.5018 58.8533 67.0811 58.797C69.049 58.5491 70.9403 57.8725 72.6243 56.8139C74.3082 55.7553 75.7448 54.3398 76.8348 52.6653C77.9248 50.9908 78.6422 49.0971 78.9376 47.115C79.2329 45.1329 79.0991 43.1096 78.5454 41.1849C78.4628 40.9856 78.4347 40.7676 78.4641 40.5537C78.4935 40.3397 78.5793 40.1377 78.7125 39.9687V39.9687ZM34.148 33.9328C34.1366 33.7662 34.1621 33.5991 34.2225 33.4437C34.2829 33.2882 34.3767 33.1483 34.4972 33.0341C34.6177 32.9198 34.7619 32.8341 34.9192 32.7831C35.0766 32.7321 35.2432 32.7171 35.4069 32.7392C35.5757 32.7234 35.7458 32.7468 35.9043 32.8075C36.0628 32.8683 36.2055 32.9647 36.3215 33.0896C36.4376 33.2145 36.5239 33.3645 36.5739 33.5282C36.6239 33.6919 36.6363 33.8649 36.6102 34.0342C36.6102 34.845 36.0643 35.1603 35.3178 35.2729C35.15 35.2704 34.9844 35.233 34.8314 35.1632C34.6784 35.0933 34.5413 34.9924 34.4285 34.8668C34.3156 34.7412 34.2296 34.5934 34.1756 34.4328C34.1216 34.2721 34.1008 34.1019 34.1146 33.9328H34.148ZM15.8431 29.7325C16.0085 29.7163 16.1754 29.7377 16.3316 29.7951C16.4878 29.8525 16.6292 29.9445 16.7457 30.0643C16.8621 30.1842 16.9505 30.3288 17.0045 30.4877C17.0585 30.6466 17.0766 30.8156 17.0575 30.9825C17.076 31.1527 17.0559 31.3249 16.9987 31.486C16.9414 31.6472 16.8486 31.793 16.7272 31.9125C16.6058 32.0319 16.4591 32.1218 16.2982 32.1753C16.1373 32.2288 15.9664 32.2445 15.7986 32.2212C15.6479 32.2393 15.4952 32.2226 15.3519 32.1724C15.2086 32.1222 15.0784 32.0398 14.9711 31.9314C14.8639 31.823 14.7823 31.6914 14.7327 31.5466C14.683 31.4017 14.6665 31.2473 14.6845 31.0951C14.6488 30.9278 14.6514 30.7546 14.6919 30.5885C14.7324 30.4223 14.8098 30.2678 14.9183 30.1364C15.0268 30.0051 15.1634 29.9004 15.3179 29.8304C15.4723 29.7605 15.6405 29.727 15.8097 29.7325H15.8431ZM28.6331 15.0032C28.4655 15.0281 28.2945 15.0139 28.133 14.9619C27.9716 14.9099 27.824 14.8213 27.7016 14.703C27.5791 14.5846 27.485 14.4396 27.4263 14.2789C27.3676 14.1182 27.346 13.9462 27.363 13.7758C27.3419 13.607 27.3588 13.4356 27.4125 13.2744C27.4663 13.1132 27.5555 12.9664 27.6734 12.845C27.7914 12.7236 27.935 12.6309 28.0935 12.5736C28.252 12.5164 28.4212 12.4962 28.5886 12.5146C28.7537 12.4987 28.9203 12.5182 29.0775 12.5718C29.2346 12.6254 29.3789 12.7118 29.5008 12.8255C29.6227 12.9392 29.7196 13.0775 29.7851 13.2316C29.8506 13.3856 29.8832 13.5518 29.8809 13.7195C29.889 13.8912 29.8613 14.0627 29.7996 14.2229C29.7379 14.3831 29.6437 14.5284 29.5229 14.6494C29.4021 14.7705 29.2575 14.8645 29.0985 14.9254C28.9394 14.9864 28.7695 15.0129 28.5997 15.0032H28.6331ZM67.3708 34.4283C66.6021 34.327 66.1119 33.9441 66.1007 33.1446C66.0754 32.973 66.0897 32.7979 66.1424 32.6329C66.1951 32.4678 66.2848 32.3173 66.4044 32.1931C66.5241 32.0688 66.6706 31.9742 66.8324 31.9166C66.9943 31.8589 67.1671 31.8399 67.3374 31.8608C67.5064 31.8387 67.6783 31.8561 67.8396 31.9117C68.001 31.9673 68.1475 32.0595 68.2681 32.1814C68.3886 32.3032 68.4799 32.4513 68.5349 32.6144C68.5898 32.7775 68.6071 32.9512 68.5852 33.1221C68.6186 33.9779 68.0504 34.2594 67.3708 34.4283ZM61.4883 50.7792C61.329 50.7806 61.1712 50.7474 61.0256 50.6819C60.8801 50.6163 60.7501 50.52 60.6445 50.3994C60.5389 50.2788 60.4601 50.1367 60.4135 49.9827C60.3669 49.8287 60.3535 49.6664 60.3742 49.5067C60.3703 49.3367 60.4021 49.1677 60.4674 49.0109C60.5328 48.8542 60.6302 48.7132 60.7534 48.5973C60.8765 48.4813 61.0225 48.393 61.1819 48.3382C61.3412 48.2834 61.5102 48.2633 61.6777 48.2793C61.8406 48.2856 62.0005 48.3263 62.1469 48.3988C62.2934 48.4713 62.4232 48.5739 62.5281 48.7001C62.633 48.8263 62.7107 48.9732 62.7561 49.1315C62.8015 49.2898 62.8137 49.456 62.7918 49.6193C62.7834 49.7826 62.7427 49.9426 62.6722 50.0898C62.6018 50.237 62.5029 50.3684 62.3815 50.4765C62.2601 50.5845 62.1185 50.667 61.9651 50.719C61.8117 50.7709 61.6496 50.7914 61.4883 50.7792ZM46.6372 27.897C46.4692 27.9074 46.301 27.881 46.1441 27.8197C45.9871 27.7583 45.8451 27.6635 45.7277 27.5416C45.6103 27.4198 45.5203 27.2738 45.4638 27.1135C45.4074 26.9533 45.3858 26.7827 45.4005 26.6132C45.4005 25.8137 45.9242 25.4871 46.626 25.3295C47.4282 25.4308 47.9184 25.8588 47.9073 26.6358C47.9192 26.8064 47.8944 26.9777 47.8345 27.1377C47.7745 27.2978 47.681 27.4427 47.5602 27.5626C47.4395 27.6826 47.2944 27.7746 47.135 27.8323C46.9757 27.89 46.8058 27.9121 46.6372 27.897V27.897Z" fill="#F9FBFC"/>
<path d="M97.5185 34.8675C97.1797 34.6698 96.7955 34.5658 96.4044 34.5658C96.0132 34.5658 95.629 34.6698 95.2903 34.8675C95.2903 38.2458 95.2903 41.5115 95.2903 44.8222C95.3613 46.8849 95.298 48.9501 95.1009 51.0044C93.8419 59.2587 89.3298 65.3171 82.2886 69.2809C73.5985 74.1456 64.3179 74.4609 54.9705 71.6119C48.8318 69.7426 45.0327 65.3171 43.2167 59.1235C42.2988 55.8936 41.8228 52.5519 41.8017 49.1914C41.6903 40.0363 41.8017 30.8924 41.8017 21.7373C41.7551 21.4152 41.8082 21.0864 41.9538 20.796C42.0995 20.5057 42.3304 20.268 42.615 20.1157C43.2435 19.7207 43.7245 19.126 43.9826 18.425C44.2407 17.7239 44.2612 16.9561 44.0411 16.2419C43.8116 15.51 43.3574 14.871 42.7444 14.4175C42.1315 13.9639 41.3916 13.7195 40.6319 13.7195C39.8954 13.736 39.1828 13.9863 38.5949 14.435C38.007 14.8837 37.5737 15.508 37.3564 16.2194C37.1071 16.924 37.1074 17.6943 37.3574 18.3987C37.6073 19.1031 38.0913 19.698 38.7268 20.0819C39.03 20.2471 39.2739 20.5047 39.4239 20.818C39.5739 21.1314 39.6224 21.4846 39.5624 21.8274C39.5624 31.1514 39.5624 40.4867 39.5624 49.8108C39.4746 52.2276 39.6051 54.6474 39.9523 57.0403C41.4007 65.1932 45.69 71.0714 53.5222 74.0443C58.7878 75.8718 64.3917 76.4836 69.9219 75.8348C79.0465 75.0578 86.7227 71.3304 92.4716 63.9657C95.2831 60.6413 97.0346 56.5354 97.4962 52.1868C97.8861 46.4325 97.4851 40.6444 97.5185 34.8675ZM40.5651 18.4941C40.396 18.5162 40.2242 18.4988 40.0629 18.4432C39.9015 18.3877 39.7549 18.2954 39.6344 18.1736C39.5138 18.0518 39.4226 17.9036 39.3676 17.7405C39.3126 17.5774 39.2954 17.4038 39.3173 17.2329C39.2969 17.0618 39.3157 16.8883 39.3721 16.7257C39.4285 16.5631 39.5211 16.4158 39.6427 16.295C39.7643 16.1743 39.9117 16.0834 40.0735 16.0293C40.2354 15.9751 40.4073 15.9593 40.5762 15.9829C41.3672 15.9829 41.7572 16.4784 41.8463 17.2442C41.8513 17.4135 41.8213 17.5821 41.758 17.7391C41.6948 17.896 41.5999 18.0379 41.4792 18.1556C41.3586 18.2733 41.215 18.3642 41.0575 18.4225C40.9001 18.4808 40.7324 18.5052 40.5651 18.4941V18.4941Z" fill="#F9FBFC"/>
<path d="M99.7801 30.2843C99.5632 29.5512 99.1238 28.9056 98.524 28.4388C97.9242 27.972 97.1944 27.7076 96.4378 27.683C95.6631 27.6764 94.9075 27.9259 94.2861 28.3935C93.6646 28.861 93.2113 29.521 92.9952 30.273C92.7618 30.9964 92.7718 31.7776 93.0237 32.4946C93.2756 33.2117 93.7553 33.8243 94.3878 34.2368L95.2346 34.8675H97.4628L98.3095 34.2368C98.9624 33.8449 99.4638 33.2399 99.7311 32.5214C99.9984 31.803 100.016 31.014 99.7801 30.2843V30.2843ZM96.4378 32.5364C95.7582 32.4013 95.2457 32.0522 95.2346 31.3315C95.2259 31.1701 95.2517 31.0086 95.3103 30.8581C95.3689 30.7076 95.4589 30.5717 95.5741 30.4595C95.6893 30.3473 95.8271 30.2615 95.9781 30.208C96.129 30.1544 96.2896 30.1343 96.4489 30.1491C96.602 30.1487 96.7536 30.1803 96.8941 30.2417C97.0346 30.3032 97.1611 30.3933 97.2656 30.5063C97.3702 30.6194 97.4506 30.753 97.5017 30.8989C97.5529 31.0447 97.5738 31.1997 97.563 31.354C97.5519 32.041 97.0617 32.4013 96.4044 32.5364H96.4378Z" fill="#F9FBFC"/>
</g>
<defs>
<clipPath id="clip0_1_1313">
<rect width="99" height="76" fill="white" transform="translate(0.947266 0.0373535)"/>
</clipPath>
</defs>
</svg>
