<svg width="100" height="77" viewBox="0 0 100 77" fill="none" xmlns="http://www.w3.org/2000/svg">
<g clip-path="url(#clip0_9_855)">
<path d="M78.7124 39.9687C80.8626 36.8382 80.5729 33.7414 78.4895 30.7235C78.1105 30.1901 77.9184 29.5441 77.9436 28.8879C77.9436 25.0367 76.8295 21.7823 73.0081 20.172C72.373 19.913 72.4399 19.4513 72.3619 19.0459C71.5263 14.3163 69.2647 11.9065 64.5631 10.8367C64.1732 10.7466 63.8167 10.7579 63.605 10.2849C62.0007 6.72644 59.026 5.48774 55.394 5.45395C55.1728 5.46226 54.9533 5.41147 54.7577 5.30668C54.5621 5.2019 54.3973 5.04683 54.2799 4.85713C51.0712 0.998382 47.2833 0.247654 42.9159 2.60494C42.4814 2.84142 42.2029 2.98781 41.8018 2.49233C41.2172 1.79636 40.499 1.22737 39.6908 0.819729C38.8825 0.412087 38.0009 0.174249 37.0992 0.120573C36.1974 0.066898 35.2943 0.198502 34.4443 0.507436C33.5943 0.81637 32.815 1.29622 32.1536 1.91802C30.6273 3.5396 29.58 3.32564 27.7863 2.5599C19.709 -0.897208 11.7319 3.83238 10.551 12.6947C10.473 13.3253 10.1276 13.4717 9.70425 13.7082C8.03237 14.5302 6.66629 15.8738 5.80767 17.5405C4.94905 19.2073 4.6434 21.1089 4.93585 22.9647C5.01711 23.2997 4.98821 23.6524 4.85354 23.9693C4.71886 24.2863 4.48572 24.5503 4.1894 24.7214C0.757932 27.165 -0.712694 34.4734 3.72147 37.7953C4.30251 38.1985 4.76604 38.7517 5.06386 39.3973C5.36168 40.0429 5.48291 40.7574 5.41492 41.4664C5.48177 47.4122 9.9605 51.7026 16.1215 50.3738C16.5606 50.3076 16.9957 50.2174 17.425 50.1035C18.0267 49.9234 18.3609 49.9909 18.6283 50.6778C21.0459 56.8488 26.5608 60.2834 34.4153 59.0222C36.3092 58.7181 36.4652 58.5042 36.4652 56.6011C36.4652 50.5427 36.4652 44.4843 36.4652 38.426C36.4652 37.8629 36.3872 37.3787 37.0446 36.962C37.742 36.593 38.2846 35.9825 38.5731 35.2421C38.8616 34.5018 38.8766 33.6812 38.6155 32.9306C38.3881 32.2132 37.9428 31.5865 37.3427 31.1397C36.7426 30.6929 36.0184 30.4487 35.2731 30.442C34.535 30.4522 33.8179 30.6923 33.2197 31.1296C32.6216 31.567 32.1714 32.1802 31.9308 32.8856C31.6911 33.642 31.7227 34.4597 32.0202 35.1949C32.3177 35.9301 32.8619 36.5358 33.5574 36.9057C33.7575 37.0138 33.9233 37.1769 34.0357 37.3761C34.1481 37.5754 34.2024 37.8027 34.1924 38.0318C34.1924 43.8199 34.1924 49.6081 34.1924 55.3962C34.1924 56.1169 34.0142 56.3646 33.2677 56.4547C26.9841 57.243 22.5054 54.3939 20.6114 48.3356C20.1769 46.9392 19.8092 46.7478 18.3832 47.1194C17.4808 47.3446 16.5783 47.5923 15.6647 47.7387C11.0412 48.4369 7.86597 45.8919 8.12221 41.1736C8.23362 38.6962 7.81026 37.1873 5.55975 35.8022C2.72991 34.0567 2.90816 29.0456 5.55975 27.0749C6.52903 29.8789 8.27818 31.7933 11.3309 32.0973C11.6944 32.1042 12.0513 32.1976 12.3726 32.3697C12.6939 32.5419 12.9706 32.788 13.1803 33.0883C13.6646 33.6845 14.3306 34.1019 15.0744 34.275C15.8182 34.4482 16.5978 34.3675 17.2914 34.0455C17.9434 33.748 18.4883 33.2538 18.8514 32.6308C19.2144 32.0078 19.3778 31.2864 19.319 30.5658C19.2364 29.8029 18.917 29.0859 18.4067 28.5175C17.8964 27.9492 17.2213 27.5585 16.4781 27.4015C15.7525 27.273 15.0054 27.3777 14.3418 27.7009C13.6783 28.0241 13.1318 28.5496 12.7792 29.2033C12.5341 29.6199 12.5341 30.3293 11.6651 29.9803C10.6882 29.6854 9.81011 29.1252 9.12646 28.3608C8.44282 27.5963 7.97984 26.6569 7.78797 25.6448C7.61173 24.4549 7.50756 23.2553 7.47602 22.0526C7.3092 20.6069 7.6698 19.1493 8.49022 17.9531C9.31064 16.7569 10.5345 15.9043 11.9325 15.555C12.1379 15.5124 12.3328 15.4287 12.5056 15.3087C12.6785 15.1888 12.8259 15.0351 12.9391 14.8567C13.0522 14.6782 13.1289 14.4787 13.1646 14.2699C13.2003 14.0611 13.1943 13.8471 13.1469 13.6407C12.9995 12.1158 13.3101 10.5814 14.0381 9.23763C16.4446 4.53056 21.681 2.79638 26.9953 4.94721C28.9895 5.758 28.9784 5.758 28.2431 7.68362C28.0817 8.04957 27.944 8.42573 27.8309 8.80971C27.7546 9.26527 27.5868 9.70018 27.3377 10.0876C27.0885 10.4749 26.7635 10.8066 26.3825 11.0619C25.8307 11.4525 25.4221 12.0166 25.2206 12.6664C25.0191 13.3161 25.0359 14.015 25.2684 14.6541C25.4558 15.35 25.8587 15.9669 26.418 16.4147C26.9773 16.8625 27.6637 17.1177 28.3768 17.1428C29.0898 17.2232 29.8096 17.0695 30.4295 16.7044C31.0495 16.3394 31.5368 15.7824 31.8194 15.1158C32.1192 14.4344 32.1922 13.6731 32.0275 12.9462C31.8628 12.2193 31.4692 11.566 30.9058 11.0844C30.527 10.7353 29.9922 10.5552 30.2373 9.81193C30.8684 7.61636 32.0151 5.60745 33.5797 3.95625C34.0431 3.47019 34.6113 3.09895 35.2401 2.87149C35.8688 2.64404 36.5411 2.56653 37.2044 2.64502C37.8677 2.72351 38.5041 2.95587 39.0638 3.32397C39.6236 3.69206 40.0917 4.18594 40.4315 4.76704C41.345 6.56879 41.7238 6.65888 43.2724 5.42017C46.7039 2.67251 50.4919 3.31438 52.7981 7.07553C52.9466 7.39845 53.1929 7.66525 53.5013 7.83733C53.8098 8.0094 54.1644 8.07783 54.5138 8.03271C55.0888 7.99332 55.6657 7.99332 56.2407 8.03271C57.4579 7.9936 58.6512 8.37998 59.6193 9.12669C60.5874 9.8734 61.2711 10.9347 61.555 12.1317C61.6615 12.4678 61.8737 12.7597 62.1592 12.9629C62.4447 13.1662 62.788 13.2697 63.1371 13.2578C67.7829 13.8884 69.6212 15.9154 69.8217 20.69C69.7876 21.0941 69.9122 21.4955 70.1687 21.8074C70.4251 22.1193 70.7928 22.3166 71.1921 22.3566C72.1674 22.5207 73.061 23.008 73.7323 23.7417C74.3688 24.4967 74.8375 25.381 75.1066 26.3349C75.3757 27.2888 75.439 28.2901 75.292 29.2708C75.2407 29.7517 75.2884 30.238 75.4322 30.6993C75.576 31.1606 75.8128 31.5867 76.1276 31.9509C76.8758 32.7424 77.3549 33.7543 77.4951 34.8398C77.6354 35.9253 77.4295 37.0277 76.9075 37.9868C75.5228 36.0264 73.5376 34.5818 71.2589 33.8765C70.7353 33.7189 70.8022 33.3585 70.7576 32.9419C70.7323 32.4479 70.603 31.9651 70.3785 31.5256C70.154 31.0861 69.8394 30.7001 69.4557 30.3932C69.0719 30.0863 68.6278 29.8656 68.153 29.7458C67.6782 29.6261 67.1836 29.61 66.7022 29.6987C66.2205 29.782 65.7616 29.9674 65.3558 30.2427C64.95 30.518 64.6064 30.8769 64.3475 31.2959C64.0887 31.715 63.9205 32.1846 63.8539 32.674C63.7874 33.1634 63.8241 33.6615 63.9615 34.1355C64.0901 34.6134 64.3191 35.0576 64.6328 35.4379C64.9466 35.8183 65.3378 36.1258 65.7797 36.3395C66.2217 36.5533 66.704 36.6682 67.1939 36.6765C67.6838 36.6848 68.1697 36.5863 68.6185 36.3877C68.9579 36.2393 69.3238 36.1627 69.6936 36.1627C70.0634 36.1627 70.4293 36.2393 70.7687 36.3877C72.3063 36.949 73.6567 37.9363 74.6654 39.2366C75.6741 40.537 76.3005 42.0979 76.473 43.7411C77.264 48.5833 73.7657 54.0899 69.0976 55.7115C68.4193 55.9233 67.7267 56.0851 67.0253 56.1957C66.4571 56.3196 66.1452 56.1957 66.0672 55.475C66.0115 54.4738 65.6922 53.5058 65.1425 52.671C64.8967 52.381 64.7429 52.0229 64.7012 51.6433C64.6595 51.2637 64.7317 50.8802 64.9085 50.5427C65.0795 50.0841 65.1498 49.5933 65.1143 49.1045C65.0789 48.6156 64.9387 48.1404 64.7033 47.7119C64.468 47.2833 64.1433 46.9116 63.7516 46.6227C63.3599 46.3337 62.9107 46.1343 62.4352 46.0383C61.9699 45.9318 61.4881 45.9217 61.0189 46.0086C60.5496 46.0954 60.1027 46.2775 59.705 46.5437C59.3072 46.81 58.967 47.1549 58.7048 47.5577C58.4426 47.9605 58.2638 48.4128 58.1793 48.8874C58.0753 49.3496 58.0714 49.8291 58.1679 50.293C58.2644 50.7569 58.459 51.1942 58.7384 51.575C59.0178 51.9558 59.3753 52.271 59.7865 52.499C60.1976 52.7271 60.6527 52.8626 61.1205 52.8962C62.4575 52.8962 62.8808 53.6282 63.2596 54.6304C64.3737 57.547 63.5047 59.7542 60.6303 60.9478C58.0458 61.9615 55.2311 62.219 52.5084 61.691C49.1661 61.1505 47.8403 59.5515 47.8292 56.0606C47.8292 47.6261 47.8292 39.1692 47.8292 30.7685C47.8021 30.5103 47.8524 30.2499 47.9736 30.021C48.0948 29.7921 48.2812 29.6052 48.5088 29.4848C49.1385 29.134 49.636 28.5829 49.9241 27.9171C50.2121 27.2512 50.2747 26.5079 50.102 25.8025C49.9506 25.0466 49.5559 24.3627 48.9795 23.8574C48.403 23.3522 47.6773 23.0541 46.9156 23.0097C46.1775 22.9635 45.4441 23.1571 44.8227 23.5623C44.2012 23.9676 43.7244 24.5631 43.4618 25.2619C43.1769 25.9705 43.1316 26.7544 43.3331 27.4916C43.5346 28.2289 43.9715 28.8782 44.576 29.3384C45.0105 29.6762 45.5452 29.8226 45.5341 30.6109C45.5341 39.2593 45.5341 47.9189 45.5341 56.5786C45.5341 60.3848 47.2387 63.0086 50.9153 63.9657C54.2208 64.8311 57.7035 64.7098 60.9423 63.6166C61.9998 63.3332 62.9843 62.8222 63.8284 62.1186C64.6726 61.415 65.3564 60.5355 65.8332 59.5402C66.0895 58.9546 66.5017 58.8533 67.081 58.797C69.0489 58.5491 70.9402 57.8725 72.6241 56.8139C74.3081 55.7553 75.7447 54.3398 76.8347 52.6653C77.9247 50.9908 78.6421 49.0971 78.9374 47.115C79.2328 45.1329 79.099 43.1096 78.5452 41.1849C78.4627 40.9856 78.4346 40.7676 78.464 40.5537C78.4934 40.3397 78.5792 40.1377 78.7124 39.9687V39.9687ZM34.1479 33.9328C34.1365 33.7662 34.1619 33.5991 34.2223 33.4437C34.2827 33.2882 34.3766 33.1483 34.4971 33.0341C34.6176 32.9198 34.7618 32.8341 34.9191 32.7831C35.0764 32.7321 35.243 32.7171 35.4068 32.7392C35.5756 32.7234 35.7457 32.7468 35.9042 32.8075C36.0627 32.8683 36.2054 32.9647 36.3214 33.0896C36.4374 33.2145 36.5237 33.3645 36.5738 33.5282C36.6238 33.6919 36.6362 33.8649 36.6101 34.0342C36.6101 34.845 36.0641 35.1603 35.3177 35.2729C35.1498 35.2704 34.9843 35.233 34.8313 35.1632C34.6783 35.0933 34.5412 34.9924 34.4283 34.8668C34.3155 34.7412 34.2294 34.5934 34.1755 34.4328C34.1215 34.2721 34.1007 34.1019 34.1144 33.9328H34.1479ZM15.843 29.7325C16.0084 29.7163 16.1753 29.7377 16.3315 29.7951C16.4876 29.8525 16.6291 29.9445 16.7456 30.0643C16.862 30.1842 16.9504 30.3288 17.0044 30.4877C17.0583 30.6466 17.0764 30.8156 17.0574 30.9825C17.0759 31.1527 17.0558 31.3249 16.9985 31.486C16.9413 31.6472 16.8485 31.793 16.7271 31.9125C16.6057 32.0319 16.459 32.1218 16.298 32.1753C16.1371 32.2288 15.9663 32.2445 15.7984 32.2212C15.6478 32.2393 15.4951 32.2226 15.3518 32.1724C15.2084 32.1222 15.0782 32.0398 14.971 31.9314C14.8637 31.823 14.7822 31.6914 14.7326 31.5466C14.6829 31.4017 14.6664 31.2473 14.6843 31.0951C14.6487 30.9278 14.6512 30.7546 14.6918 30.5885C14.7323 30.4223 14.8097 30.2678 14.9182 30.1364C15.0266 30.0051 15.1633 29.9004 15.3177 29.8304C15.4722 29.7605 15.6404 29.727 15.8096 29.7325H15.843ZM28.633 15.0032C28.4654 15.0281 28.2943 15.0139 28.1329 14.9619C27.9715 14.9099 27.8239 14.8213 27.7015 14.703C27.579 14.5846 27.4848 14.4396 27.4262 14.2789C27.3675 14.1182 27.3459 13.9462 27.3629 13.7758C27.3417 13.607 27.3587 13.4356 27.4124 13.2744C27.4662 13.1132 27.5554 12.9664 27.6733 12.845C27.7913 12.7236 27.9349 12.6309 28.0934 12.5736C28.2519 12.5164 28.4211 12.4962 28.5885 12.5146C28.7536 12.4987 28.9202 12.5182 29.0773 12.5718C29.2345 12.6254 29.3788 12.7118 29.5007 12.8255C29.6226 12.9392 29.7195 13.0775 29.785 13.2316C29.8505 13.3856 29.8831 13.5518 29.8808 13.7195C29.8889 13.8912 29.8612 14.0627 29.7995 14.2229C29.7378 14.3831 29.6435 14.5284 29.5227 14.6494C29.402 14.7705 29.2574 14.8645 29.0983 14.9254C28.9393 14.9864 28.7694 15.0129 28.5996 15.0032H28.633ZM67.3707 34.4283C66.602 34.327 66.1117 33.9441 66.1006 33.1446C66.0753 32.973 66.0896 32.7979 66.1423 32.6329C66.1949 32.4678 66.2846 32.3173 66.4043 32.1931C66.524 32.0688 66.6705 31.9742 66.8323 31.9166C66.9941 31.8589 67.167 31.8399 67.3373 31.8608C67.5063 31.8387 67.6781 31.8561 67.8395 31.9117C68.0008 31.9673 68.1474 32.0595 68.268 32.1814C68.3885 32.3032 68.4798 32.4513 68.5347 32.6144C68.5897 32.7775 68.6069 32.9512 68.5851 33.1221C68.6185 33.9779 68.0503 34.2594 67.3707 34.4283ZM61.4882 50.7792C61.3288 50.7806 61.1711 50.7474 61.0255 50.6819C60.88 50.6163 60.75 50.52 60.6444 50.3994C60.5388 50.2788 60.46 50.1367 60.4134 49.9827C60.3668 49.8287 60.3533 49.6664 60.3741 49.5067C60.3702 49.3367 60.402 49.1677 60.4673 49.0109C60.5327 48.8542 60.6301 48.7132 60.7533 48.5973C60.8764 48.4813 61.0224 48.393 61.1817 48.3382C61.341 48.2834 61.51 48.2633 61.6776 48.2793C61.8405 48.2856 62.0004 48.3263 62.1468 48.3988C62.2933 48.4713 62.4231 48.5739 62.528 48.7001C62.6329 48.8263 62.7106 48.9732 62.756 49.1315C62.8014 49.2898 62.8136 49.456 62.7917 49.6193C62.7832 49.7826 62.7426 49.9426 62.6721 50.0898C62.6017 50.237 62.5028 50.3684 62.3814 50.4765C62.26 50.5845 62.1184 50.667 61.965 50.719C61.8116 50.7709 61.6495 50.7914 61.4882 50.7792ZM46.6371 27.897C46.4691 27.9074 46.3009 27.881 46.1439 27.8197C45.987 27.7583 45.845 27.6635 45.7276 27.5416C45.6102 27.4198 45.5202 27.2738 45.4637 27.1135C45.4073 26.9533 45.3857 26.7827 45.4004 26.6132C45.4004 25.8137 45.924 25.4871 46.6259 25.3295C47.4281 25.4308 47.9183 25.8588 47.9072 26.6358C47.9191 26.8064 47.8943 26.9777 47.8343 27.1377C47.7744 27.2978 47.6808 27.4427 47.5601 27.5626C47.4393 27.6826 47.2943 27.7746 47.1349 27.8323C46.9755 27.89 46.8057 27.9121 46.6371 27.897V27.897Z" fill="#F9FBFC"/>
<path d="M97.5185 34.8675C97.1797 34.6698 96.7955 34.5658 96.4044 34.5658C96.0132 34.5658 95.629 34.6698 95.2903 34.8675C95.2903 38.2458 95.2903 41.5115 95.2903 44.8222C95.3613 46.8849 95.298 48.9501 95.1009 51.0044C93.8419 59.2587 89.3298 65.3171 82.2886 69.2809C73.5985 74.1456 64.3179 74.4609 54.9705 71.6119C48.8318 69.7426 45.0327 65.3171 43.2167 59.1235C42.2988 55.8936 41.8228 52.5519 41.8017 49.1914C41.6903 40.0363 41.8017 30.8924 41.8017 21.7373C41.7551 21.4152 41.8082 21.0864 41.9538 20.796C42.0995 20.5057 42.3304 20.268 42.615 20.1157C43.2435 19.7207 43.7245 19.126 43.9826 18.425C44.2407 17.7239 44.2612 16.9561 44.0411 16.2419C43.8116 15.51 43.3574 14.871 42.7444 14.4175C42.1315 13.9639 41.3916 13.7195 40.6319 13.7195C39.8954 13.736 39.1828 13.9863 38.5949 14.435C38.007 14.8837 37.5737 15.508 37.3564 16.2194C37.1071 16.924 37.1074 17.6943 37.3574 18.3987C37.6073 19.1031 38.0913 19.698 38.7268 20.0819C39.03 20.2471 39.2739 20.5047 39.4239 20.818C39.5739 21.1314 39.6224 21.4846 39.5624 21.8274C39.5624 31.1514 39.5624 40.4867 39.5624 49.8108C39.4746 52.2276 39.6051 54.6474 39.9523 57.0403C41.4007 65.1932 45.69 71.0714 53.5222 74.0443C58.7878 75.8718 64.3917 76.4836 69.9219 75.8348C79.0465 75.0578 86.7227 71.3304 92.4716 63.9657C95.2831 60.6413 97.0346 56.5354 97.4962 52.1868C97.8861 46.4325 97.4851 40.6444 97.5185 34.8675ZM40.5651 18.4941C40.396 18.5162 40.2242 18.4988 40.0629 18.4432C39.9015 18.3877 39.7549 18.2954 39.6344 18.1736C39.5138 18.0518 39.4226 17.9036 39.3676 17.7405C39.3126 17.5774 39.2954 17.4038 39.3173 17.2329C39.2969 17.0618 39.3157 16.8883 39.3721 16.7257C39.4285 16.5631 39.5211 16.4158 39.6427 16.295C39.7643 16.1743 39.9117 16.0834 40.0735 16.0293C40.2354 15.9751 40.4073 15.9593 40.5762 15.9829C41.3672 15.9829 41.7572 16.4784 41.8463 17.2442C41.8513 17.4135 41.8213 17.5821 41.758 17.7391C41.6948 17.896 41.5999 18.0379 41.4792 18.1556C41.3586 18.2733 41.215 18.3642 41.0575 18.4225C40.9001 18.4808 40.7324 18.5052 40.5651 18.4941V18.4941Z" fill="#F9FBFC"/>
<path d="M99.7801 30.2843C99.5632 29.5512 99.1238 28.9056 98.524 28.4388C97.9242 27.972 97.1944 27.7076 96.4378 27.683C95.6631 27.6764 94.9075 27.9259 94.2861 28.3935C93.6646 28.861 93.2113 29.521 92.9952 30.273C92.7618 30.9964 92.7718 31.7776 93.0237 32.4946C93.2756 33.2117 93.7553 33.8243 94.3878 34.2368L95.2346 34.8675H97.4628L98.3095 34.2368C98.9624 33.8449 99.4638 33.2399 99.7311 32.5214C99.9984 31.803 100.016 31.014 99.7801 30.2843V30.2843ZM96.4378 32.5364C95.7582 32.4013 95.2457 32.0522 95.2346 31.3315C95.2259 31.1701 95.2517 31.0086 95.3103 30.8581C95.3689 30.7076 95.4589 30.5717 95.5741 30.4595C95.6893 30.3473 95.8271 30.2615 95.9781 30.208C96.129 30.1544 96.2896 30.1343 96.4489 30.1491C96.602 30.1487 96.7536 30.1803 96.8941 30.2417C97.0346 30.3032 97.1611 30.3933 97.2656 30.5063C97.3702 30.6194 97.4506 30.753 97.5017 30.8989C97.5529 31.0447 97.5738 31.1997 97.563 31.354C97.5519 32.041 97.0617 32.4013 96.4044 32.5364H96.4378Z" fill="#F9FBFC"/>
</g>
<defs>
<clipPath id="clip0_9_855">
<rect width="99" height="76" fill="white" transform="translate(0.947266 0.0373535)"/>
</clipPath>
</defs>
</svg>
