<svg width="66" height="67" viewBox="0 0 66 67" fill="none" xmlns="http://www.w3.org/2000/svg">
<rect x="0.5" y="0.914062" width="65.387" height="65.387" rx="16" fill="#F9668D"/>
<path d="M32.0492 29.0701H34.3394V27.9358C34.3394 27.6349 34.4601 27.3464 34.6748 27.1336C34.8896 26.9209 35.1808 26.8014 35.4845 26.8014H38.9199C39.2236 26.8014 39.5148 26.9209 39.7296 27.1336C39.9443 27.3464 40.065 27.6349 40.065 27.9358V29.0701H44.6454V24.5326C44.6454 23.3292 44.1629 22.1751 43.3039 21.3241C42.4449 20.4732 41.2798 19.9951 40.065 19.9951H26.3236C25.1088 19.9951 23.9438 20.4732 23.0847 21.3241C22.2257 22.1751 21.7432 23.3292 21.7432 24.5326V29.0701H26.3236V27.9358C26.3236 27.6349 26.4443 27.3464 26.659 27.1336C26.8738 26.9209 27.165 26.8014 27.4687 26.8014H30.9041C31.2078 26.8014 31.499 26.9209 31.7138 27.1336C31.9285 27.3464 32.0492 27.6349 32.0492 27.9358V29.0701Z" fill="white"/>
<path d="M22.8884 31.3389C21.37 31.3389 19.9137 31.9365 18.84 33.0002C17.7663 34.0639 17.1631 35.5065 17.1631 37.0108V46.0858C17.1631 46.3867 17.2837 46.6752 17.4985 46.8879C17.7132 47.1007 18.0045 47.2202 18.3082 47.2202C18.6118 47.2202 18.9031 47.1007 19.1178 46.8879C19.3326 46.6752 19.4532 46.3867 19.4532 46.0858V40.4139H46.9348V46.0858C46.9348 46.3867 47.0554 46.6752 47.2702 46.8879C47.4849 47.1007 47.7762 47.2202 48.0798 47.2202C48.3835 47.2202 48.6748 47.1007 48.8895 46.8879C49.1043 46.6752 49.2249 46.3867 49.2249 46.0858V37.0108C49.2249 35.5065 48.6217 34.0639 47.548 33.0002C46.4743 31.9365 45.018 31.3389 43.4996 31.3389H22.8884Z" fill="white"/>
</svg>
