<svg width="71" height="67" viewBox="0 0 71 67" fill="none" xmlns="http://www.w3.org/2000/svg">
<path d="M0.654907 16.9141C0.654907 8.0775 7.81835 0.914062 16.6549 0.914062H54.6549C63.4915 0.914062 70.6549 8.07751 70.6549 16.9141V50.3011C70.6549 59.1377 63.4915 66.3011 54.6549 66.3011H16.6549C7.81835 66.3011 0.654907 59.1377 0.654907 50.3011V16.9141Z" fill="#4DABFF"/>
<path d="M46.56 24.6786C46.2449 23.8182 45.3623 23.2057 44.3222 23.2057H40.3824V21.7474C40.3824 20.9453 39.6733 20.2891 38.8065 20.2891H32.5028C31.636 20.2891 30.9269 20.9453 30.9269 21.7474V23.2057H26.9871C25.9469 23.2057 25.0802 23.8182 24.7492 24.6786L21.6447 32.9474C21.5344 33.2536 21.4713 33.5745 21.4713 33.9099V44.3516C21.4713 45.562 22.5272 46.5391 23.8352 46.5391C25.1432 46.5391 26.1991 45.562 26.1991 44.3516V43.6224H45.1102V44.3516C45.1102 45.5474 46.1661 46.5391 47.4741 46.5391C48.7663 46.5391 49.838 45.562 49.838 44.3516V33.9099C49.838 33.5891 49.7749 33.2536 49.6646 32.9474L46.56 24.6786ZM26.9871 39.2474C25.679 39.2474 24.6232 38.2703 24.6232 37.0599C24.6232 35.8495 25.679 34.8724 26.9871 34.8724C28.2951 34.8724 29.3509 35.8495 29.3509 37.0599C29.3509 38.2703 28.2951 39.2474 26.9871 39.2474ZM44.3222 39.2474C43.0142 39.2474 41.9583 38.2703 41.9583 37.0599C41.9583 35.8495 43.0142 34.8724 44.3222 34.8724C45.6303 34.8724 46.6861 35.8495 46.6861 37.0599C46.6861 38.2703 45.6303 39.2474 44.3222 39.2474ZM24.6232 31.9557L26.9871 25.3932H44.3222L46.6861 31.9557H24.6232Z" fill="white"/>
</svg>
