<svg width="17" height="35" viewBox="0 0 17 35" fill="none" xmlns="http://www.w3.org/2000/svg">
<path d="M15.9946 12.4066L11.1945 10.8381L9.04875 1.05764C8.99015 0.789852 8.89373 0.573075 8.77462 0.441309C8.47592 0.109767 8.11293 0.386052 7.96358 1.05764L5.81781 10.8381L1.01772 12.4066C0.885385 12.4491 0.764391 12.5893 0.671754 12.8019C0.559761 13.0607 0.498048 13.4088 0.500175 13.7699C0.502302 14.1309 0.568095 14.4753 0.683097 14.7273L4.15603 22.34L3.33553 33.0896C3.31629 33.3397 3.3286 33.5969 3.37106 33.832C3.41352 34.0671 3.48443 34.2708 3.57576 34.42C3.66709 34.5691 3.77517 34.6577 3.88776 34.6758C4.00034 34.6938 4.11293 34.6406 4.21274 34.5221L8.50617 29.4469L12.7996 34.5221C12.9168 34.6623 13.0529 34.7091 13.1834 34.6581C13.5123 34.5306 13.7335 33.8292 13.6768 33.0896L12.8563 22.34L16.3292 14.7273C16.4238 14.5191 16.4862 14.247 16.5051 13.9495C16.5561 13.2057 16.3255 12.5171 15.9946 12.4066V12.4066Z" fill="#FDBF00"/>
</svg>
