<svg width="17" height="35" viewBox="0 0 17 35" fill="none" xmlns="http://www.w3.org/2000/svg">
<path d="M16.2444 12.4066L11.4444 10.8381L9.29861 1.05764C9.24 0.789852 9.14358 0.573075 9.02448 0.441309C8.72577 0.109767 8.36279 0.386052 8.21344 1.05764L6.06768 10.8381L1.2676 12.4066C1.13526 12.4491 1.01427 12.5893 0.921631 12.8019C0.809639 13.0607 0.747926 13.4088 0.750053 13.7699C0.75218 14.1309 0.817973 14.4753 0.932975 14.7273L4.40589 22.34L3.5854 33.0896C3.56616 33.3397 3.57847 33.5969 3.62093 33.832C3.66339 34.0671 3.7343 34.2708 3.82563 34.42C3.91695 34.5691 4.02504 34.6577 4.13763 34.6758C4.25021 34.6938 4.3628 34.6406 4.46261 34.5221L8.75602 29.4469L13.0494 34.5221C13.1666 34.6623 13.3028 34.7091 13.4332 34.6581C13.7622 34.5306 13.9834 33.8292 13.9266 33.0896L13.1062 22.34L16.5791 14.7273C16.6736 14.5191 16.736 14.247 16.7549 13.9495C16.8059 13.2057 16.5753 12.5171 16.2444 12.4066Z" fill="#FDBF00"/>
</svg>
