<svg width="17" height="35" viewBox="0 0 17 35" fill="none" xmlns="http://www.w3.org/2000/svg">
<path d="M15.9946 12.4066L11.1945 10.8381L9.04871 1.05764C8.9901 0.789852 8.89368 0.573075 8.77458 0.441309C8.47587 0.109767 8.11289 0.386052 7.96353 1.05764L5.81777 10.8381L1.01768 12.4066C0.88534 12.4491 0.764345 12.5893 0.671708 12.8019C0.559716 13.0607 0.498003 13.4088 0.50013 13.7699C0.502256 14.1309 0.568049 14.4753 0.683051 14.7273L4.15598 22.34L3.33548 33.0896C3.31624 33.3397 3.32855 33.5969 3.37101 33.832C3.41347 34.0671 3.48439 34.2708 3.57571 34.42C3.66704 34.5691 3.77512 34.6577 3.88771 34.6758C4.0003 34.6938 4.11288 34.6406 4.2127 34.5221L8.50612 29.4469L12.7995 34.5221C12.9168 34.6623 13.0529 34.7091 13.1833 34.6581C13.5123 34.5306 13.7335 33.8292 13.6768 33.0896L12.8563 22.34L16.3292 14.7273C16.4237 14.5191 16.4861 14.247 16.505 13.9495C16.5561 13.2057 16.3254 12.5171 15.9946 12.4066Z" fill="#FDBF00"/>
</svg>
