<svg width="17" height="35" viewBox="0 0 17 35" fill="none" xmlns="http://www.w3.org/2000/svg">
<path d="M15.524 12.4066L10.7148 10.8381L8.56494 1.05764C8.50622 0.789852 8.40962 0.573075 8.29028 0.441309C7.99101 0.109767 7.62733 0.386052 7.47769 1.05764L5.32783 10.8381L0.518589 12.4066C0.385998 12.4491 0.264773 12.5893 0.171959 12.8019C0.059753 13.0607 -0.00207771 13.4088 5.33126e-05 13.7699C0.00218433 14.1309 0.0681027 14.4753 0.183324 14.7273L3.66288 22.34L2.84082 33.0896C2.82154 33.3397 2.83387 33.5969 2.87641 33.832C2.91895 34.0671 2.99 34.2708 3.0815 34.42C3.173 34.5691 3.28129 34.6577 3.3941 34.6758C3.5069 34.6938 3.6197 34.6406 3.7197 34.5221L8.02132 29.4469L12.3229 34.5221C12.4404 34.6623 12.5767 34.7091 12.7074 34.6581C13.037 34.5306 13.2586 33.8292 13.2018 33.0896L12.3798 22.34L15.8593 14.7273C15.954 14.5191 16.0165 14.247 16.0355 13.9495C16.0866 13.2057 15.8555 12.5171 15.524 12.4066V12.4066Z" fill="#FDBF00"/>
</svg>
