<svg width="16" height="20" viewBox="0 0 16 20" fill="none" xmlns="http://www.w3.org/2000/svg">
<path d="M8.44376 7.72003L7.10112 8.98189C7.27705 9.61666 7.52509 10.2284 7.84022 10.8048C8.16672 11.3744 8.5609 11.901 9.01387 12.3727L10.7539 11.8116C11.2308 11.6587 11.7419 11.6549 12.221 11.8007C12.7001 11.9465 13.1251 12.2353 13.4411 12.6296L14.4327 13.8612C14.8352 14.3612 15.036 14.998 14.9947 15.6428C14.9533 16.2877 14.6728 16.8925 14.2099 17.3351C12.5942 18.8765 10.104 19.3998 8.23948 17.8678C6.59437 16.5094 5.20888 14.8548 4.15213 12.9866C3.08302 11.1134 2.36931 9.0527 2.0481 6.91154C1.68969 4.49361 3.38332 2.55926 5.49106 1.89811C6.0987 1.709 6.75444 1.76352 7.32383 2.05048C7.89322 2.33744 8.33311 2.8351 8.55332 3.44143L9.09744 4.92997C9.27303 5.40836 9.30482 5.92905 9.18875 6.42586C9.07268 6.92267 8.81401 7.37315 8.44561 7.72003H8.44376Z" stroke="#80C904" stroke-width="2"/>
</svg>
