<svg width="17" height="35" viewBox="0 0 17 35" fill="none" xmlns="http://www.w3.org/2000/svg">
<path d="M15.7446 12.4066L10.9445 10.8381L8.79869 1.05764C8.74009 0.789852 8.64367 0.573075 8.52456 0.441309C8.22586 0.109767 7.86287 0.386052 7.71352 1.05764L5.56775 10.8381L0.767662 12.4066C0.635324 12.4491 0.51433 12.5893 0.421693 12.8019C0.3097 13.0607 0.247987 13.4088 0.250114 13.7699C0.252241 14.1309 0.318034 14.4753 0.433036 14.7273L3.90597 22.34L3.08547 33.0896C3.06623 33.3397 3.07854 33.5969 3.121 33.832C3.16346 34.0671 3.23437 34.2708 3.3257 34.42C3.41702 34.5691 3.52511 34.6577 3.6377 34.6758C3.75028 34.6938 3.86287 34.6406 3.96268 34.5221L8.25611 29.4469L12.5495 34.5221C12.6667 34.6623 12.8029 34.7091 12.9333 34.6581C13.2623 34.5306 13.4835 33.8292 13.4267 33.0896L12.6062 22.34L16.0792 14.7273C16.1737 14.5191 16.2361 14.247 16.255 13.9495C16.306 13.2057 16.0754 12.5171 15.7446 12.4066Z" fill="#FDBF00"/>
</svg>
