<svg width="17" height="35" viewBox="0 0 17 35" fill="none" xmlns="http://www.w3.org/2000/svg">
<path d="M15.7445 12.4066L10.9444 10.8381L8.79863 1.05764C8.74002 0.789852 8.64361 0.573075 8.5245 0.441309C8.2258 0.109767 7.86281 0.386052 7.71346 1.05764L5.56769 10.8381L0.767601 12.4066C0.635263 12.4491 0.514268 12.5893 0.421632 12.8019C0.309639 13.0607 0.247926 13.4088 0.250053 13.7699C0.25218 14.1309 0.317973 14.4753 0.432975 14.7273L3.9059 22.34L3.08541 33.0896C3.06617 33.3397 3.07847 33.5969 3.12094 33.832C3.1634 34.0671 3.23431 34.2708 3.32564 34.42C3.41696 34.5691 3.52505 34.6577 3.63764 34.6758C3.75022 34.6938 3.86281 34.6406 3.96262 34.5221L8.25605 29.4469L12.5495 34.5221C12.6667 34.6623 12.8028 34.7091 12.9333 34.6581C13.2622 34.5306 13.4834 33.8292 13.4267 33.0896L12.6062 22.34L16.0791 14.7273C16.1736 14.5191 16.236 14.247 16.2549 13.9495C16.306 13.2057 16.0753 12.5171 15.7445 12.4066V12.4066Z" fill="#FDBF00"/>
</svg>
