<svg width="26" height="26" viewBox="0 0 26 26" fill="none" xmlns="http://www.w3.org/2000/svg">
<g clip-path="url(#clip0_1_1700)">
<path d="M12.75 23.1045C10.0173 23.1045 7.39661 22.019 5.46434 20.0867C3.53207 18.1544 2.44653 15.5337 2.44653 12.8011C2.44653 10.0684 3.53207 7.44769 5.46434 5.51542C7.39661 3.58315 10.0173 2.49762 12.75 2.49762C15.4826 2.49762 18.1033 3.58315 20.0356 5.51542C21.9679 7.44769 23.0534 10.0684 23.0534 12.8011C23.0534 15.5337 21.9679 18.1544 20.0356 20.0867C18.1033 22.019 15.4826 23.1045 12.75 23.1045ZM12.75 24.5764C15.873 24.5764 18.8681 23.3358 21.0764 21.1275C23.2847 18.9192 24.5253 15.9241 24.5253 12.8011C24.5253 9.67803 23.2847 6.68293 21.0764 4.47462C18.8681 2.26631 15.873 1.0257 12.75 1.0257C9.62695 1.0257 6.63184 2.26631 4.42353 4.47462C2.21522 6.68293 0.974609 9.67803 0.974609 12.8011C0.974609 15.9241 2.21522 18.9192 4.42353 21.1275C6.63184 23.3358 9.62695 24.5764 12.75 24.5764V24.5764Z" fill="#1262AF"/>
<path d="M10.1214 7.80091C10.2602 7.72941 10.4161 7.6976 10.5719 7.70898C10.7276 7.72037 10.8772 7.7745 11.0042 7.86543L16.9466 12.11C17.0566 12.1885 17.1463 12.2922 17.2082 12.4124C17.2701 12.5326 17.3024 12.6658 17.3024 12.801C17.3024 12.9362 17.2701 13.0694 17.2082 13.1896C17.1463 13.3098 17.0566 13.4135 16.9466 13.492L11.0042 17.7366C10.8773 17.8274 10.7278 17.8815 10.5721 17.8929C10.4164 17.9043 10.2606 17.8725 10.1218 17.8011C9.98296 17.7297 9.86654 17.6213 9.78529 17.4881C9.70405 17.3548 9.66113 17.2016 9.66126 17.0455V8.55644C9.66109 8.40038 9.70395 8.2473 9.78512 8.11401C9.86629 7.98072 9.98263 7.87239 10.1214 7.80091V7.80091Z" fill="#1262AF"/>
</g>
<defs>
<clipPath id="clip0_1_1700">
<rect width="25" height="25" fill="white" transform="translate(0.25 0.301025)"/>
</clipPath>
</defs>
</svg>
