<svg width="26" height="26" viewBox="0 0 26 26" fill="none" xmlns="http://www.w3.org/2000/svg">
<g clip-path="url(#clip0_1_2028)">
<path d="M12.75 23.1045C10.0174 23.1045 7.39664 22.019 5.46437 20.0867C3.5321 18.1544 2.44656 15.5337 2.44656 12.8011C2.44656 10.0684 3.5321 7.44769 5.46437 5.51542C7.39664 3.58315 10.0174 2.49762 12.75 2.49762C15.4826 2.49762 18.1034 3.58315 20.0356 5.51542C21.9679 7.44769 23.0534 10.0684 23.0534 12.8011C23.0534 15.5337 21.9679 18.1544 20.0356 20.0867C18.1034 22.019 15.4826 23.1045 12.75 23.1045ZM12.75 24.5764C15.873 24.5764 18.8681 23.3358 21.0764 21.1275C23.2847 18.9192 24.5254 15.9241 24.5254 12.8011C24.5254 9.67803 23.2847 6.68293 21.0764 4.47462C18.8681 2.26631 15.873 1.0257 12.75 1.0257C9.62698 1.0257 6.63187 2.26631 4.42356 4.47462C2.21525 6.68293 0.97464 9.67803 0.97464 12.8011C0.97464 15.9241 2.21525 18.9192 4.42356 21.1275C6.63187 23.3358 9.62698 24.5764 12.75 24.5764Z" fill="#1262AF"/>
<path d="M10.1214 7.80091C10.2603 7.72941 10.4162 7.6976 10.5719 7.70898C10.7277 7.72037 10.8773 7.7745 11.0043 7.86543L16.9467 12.11C17.0567 12.1885 17.1464 12.2922 17.2083 12.4124C17.2702 12.5326 17.3025 12.6658 17.3025 12.801C17.3025 12.9362 17.2702 13.0694 17.2083 13.1896C17.1464 13.3098 17.0567 13.4135 16.9467 13.492L11.0043 17.7366C10.8774 17.8274 10.7278 17.8815 10.5721 17.8929C10.4164 17.9043 10.2606 17.8725 10.1218 17.8011C9.98302 17.7297 9.8666 17.6213 9.78535 17.4881C9.70411 17.3548 9.66119 17.2016 9.66132 17.0455V8.55644C9.66115 8.40038 9.70401 8.2473 9.78518 8.11401C9.86635 7.98072 9.9827 7.87239 10.1214 7.80091Z" fill="#1262AF"/>
</g>
<defs>
<clipPath id="clip0_1_2028">
<rect width="25" height="25" fill="white" transform="translate(0.25 0.301025)"/>
</clipPath>
</defs>
</svg>
