<svg width="25" height="26" viewBox="0 0 25 26" fill="none" xmlns="http://www.w3.org/2000/svg">
<path d="M12.5 23.1045C9.76739 23.1045 7.14667 22.019 5.2144 20.0867C3.28213 18.1544 2.19659 15.5337 2.19659 12.8011C2.19659 10.0684 3.28213 7.44769 5.2144 5.51542C7.14667 3.58315 9.76739 2.49762 12.5 2.49762C15.2327 2.49762 17.8534 3.58315 19.7857 5.51542C21.7179 7.44769 22.8035 10.0684 22.8035 12.8011C22.8035 15.5337 21.7179 18.1544 19.7857 20.0867C17.8534 22.019 15.2327 23.1045 12.5 23.1045ZM12.5 24.5764C15.623 24.5764 18.6182 23.3358 20.8265 21.1275C23.0348 18.9192 24.2754 15.9241 24.2754 12.8011C24.2754 9.67803 23.0348 6.68293 20.8265 4.47462C18.6182 2.26631 15.623 1.0257 12.5 1.0257C9.37701 1.0257 6.3819 2.26631 4.17359 4.47462C1.96529 6.68293 0.72467 9.67803 0.72467 12.8011C0.72467 15.9241 1.96529 18.9192 4.17359 21.1275C6.3819 23.3358 9.37701 24.5764 12.5 24.5764Z" fill="#1262AF"/>
<path d="M9.87143 7.80091C10.0103 7.72941 10.1662 7.6976 10.3219 7.70898C10.4777 7.72037 10.6273 7.7745 10.7543 7.86543L16.6967 12.11C16.8067 12.1885 16.8964 12.2922 16.9583 12.4124C17.0202 12.5326 17.0525 12.6658 17.0525 12.801C17.0525 12.9362 17.0202 13.0694 16.9583 13.1896C16.8964 13.3098 16.8067 13.4135 16.6967 13.492L10.7543 17.7366C10.6274 17.8274 10.4778 17.8815 10.3221 17.8929C10.1664 17.9043 10.0106 17.8725 9.87183 17.8011C9.73302 17.7297 9.6166 17.6213 9.53535 17.4881C9.45411 17.3548 9.41119 17.2016 9.41132 17.0455V8.55644C9.41115 8.40038 9.45401 8.2473 9.53518 8.11401C9.61635 7.98072 9.7327 7.87239 9.87143 7.80091Z" fill="#1262AF"/>
</svg>
