<svg width="26" height="26" viewBox="0 0 26 26" fill="none" xmlns="http://www.w3.org/2000/svg">
<g clip-path="url(#clip0_1_1732)">
<path d="M13.25 23.1045C10.5174 23.1045 7.89664 22.019 5.96437 20.0867C4.0321 18.1544 2.94656 15.5337 2.94656 12.8011C2.94656 10.0684 4.0321 7.44769 5.96437 5.51542C7.89664 3.58315 10.5174 2.49762 13.25 2.49762C15.9826 2.49762 18.6034 3.58315 20.5356 5.51542C22.4679 7.44769 23.5534 10.0684 23.5534 12.8011C23.5534 15.5337 22.4679 18.1544 20.5356 20.0867C18.6034 22.019 15.9826 23.1045 13.25 23.1045ZM13.25 24.5764C16.373 24.5764 19.3681 23.3358 21.5764 21.1275C23.7847 18.9192 25.0254 15.9241 25.0254 12.8011C25.0254 9.67803 23.7847 6.68293 21.5764 4.47462C19.3681 2.26631 16.373 1.0257 13.25 1.0257C10.127 1.0257 7.13187 2.26631 4.92356 4.47462C2.71525 6.68293 1.47464 9.67803 1.47464 12.8011C1.47464 15.9241 2.71525 18.9192 4.92356 21.1275C7.13187 23.3358 10.127 24.5764 13.25 24.5764V24.5764Z" fill="#1262AF"/>
<path d="M10.6214 7.80091C10.7603 7.72941 10.9162 7.6976 11.0719 7.70898C11.2277 7.72037 11.3773 7.7745 11.5043 7.86543L17.4467 12.11C17.5567 12.1885 17.6464 12.2922 17.7083 12.4124C17.7702 12.5326 17.8025 12.6658 17.8025 12.801C17.8025 12.9362 17.7702 13.0694 17.7083 13.1896C17.6464 13.3098 17.5567 13.4135 17.4467 13.492L11.5043 17.7366C11.3774 17.8274 11.2278 17.8815 11.0721 17.8929C10.9164 17.9043 10.7606 17.8725 10.6218 17.8011C10.483 17.7297 10.3666 17.6213 10.2854 17.4881C10.2041 17.3548 10.1612 17.2016 10.1613 17.0455V8.55644C10.1612 8.40038 10.204 8.2473 10.2852 8.11401C10.3664 7.98072 10.4827 7.87239 10.6214 7.80091V7.80091Z" fill="#1262AF"/>
</g>
<defs>
<clipPath id="clip0_1_1732">
<rect width="25" height="25" fill="white" transform="translate(0.75 0.301025)"/>
</clipPath>
</defs>
</svg>
