<svg width="26" height="26" viewBox="0 0 26 26" fill="none" xmlns="http://www.w3.org/2000/svg">
<path d="M13 23.1045C10.2674 23.1045 7.64664 22.019 5.71437 20.0867C3.7821 18.1544 2.69656 15.5337 2.69656 12.8011C2.69656 10.0684 3.7821 7.44769 5.71437 5.51542C7.64664 3.58315 10.2674 2.49762 13 2.49762C15.7326 2.49762 18.3534 3.58315 20.2856 5.51542C22.2179 7.44769 23.3034 10.0684 23.3034 12.8011C23.3034 15.5337 22.2179 18.1544 20.2856 20.0867C18.3534 22.019 15.7326 23.1045 13 23.1045ZM13 24.5764C16.123 24.5764 19.1181 23.3358 21.3264 21.1275C23.5347 18.9192 24.7754 15.9241 24.7754 12.8011C24.7754 9.67803 23.5347 6.68293 21.3264 4.47462C19.1181 2.26631 16.123 1.0257 13 1.0257C9.87698 1.0257 6.88187 2.26631 4.67356 4.47462C2.46525 6.68293 1.22464 9.67803 1.22464 12.8011C1.22464 15.9241 2.46525 18.9192 4.67356 21.1275C6.88187 23.3358 9.87698 24.5764 13 24.5764V24.5764Z" fill="#1262AF"/>
<path d="M10.3714 7.80091C10.5103 7.72941 10.6662 7.6976 10.8219 7.70898C10.9777 7.72037 11.1273 7.7745 11.2543 7.86543L17.1966 12.11C17.3067 12.1885 17.3964 12.2922 17.4583 12.4124C17.5202 12.5326 17.5525 12.6658 17.5525 12.801C17.5525 12.9362 17.5202 13.0694 17.4583 13.1896C17.3964 13.3098 17.3067 13.4135 17.1966 13.492L11.2543 17.7366C11.1273 17.8274 10.9778 17.8815 10.8221 17.8929C10.6664 17.9043 10.5106 17.8725 10.3718 17.8011C10.233 17.7297 10.1166 17.6213 10.0353 17.4881C9.95409 17.3548 9.91117 17.2016 9.9113 17.0455V8.55644C9.91114 8.40038 9.954 8.2473 10.0352 8.11401C10.1163 7.98072 10.2327 7.87239 10.3714 7.80091V7.80091Z" fill="#1262AF"/>
</svg>
